<?xml version="1.0" encoding="utf-8"?>
<!-- Generator: Adobe Illustrator 25.4.1, SVG Export Plug-In . SVG Version: 6.00 Build 0)  -->
<svg version="1.1" id="Layer_1" xmlns="http://www.w3.org/2000/svg" xmlns:xlink="http://www.w3.org/1999/xlink" x="0px" y="0px"
	 viewBox="0 0 96.6 89.5" style="enable-background:new 0 0 96.6 89.5;" xml:space="preserve">
<style type="text/css">
	.st0{fill:#FFFFFF;}
</style>
<path class="st0" d="M96.9,48.1l0-7.5c0-3.4-2.8-6.2-6.2-6.2l-10.3,0.1c-1.5,0-2.9-1-3.5-2.4c-1.1-2.6-2.4-5-4.1-7.2
	c-0.9-1.2-1-2.8-0.2-4.2l4.6-7.9c1.7-2.9,0.7-6.8-2.3-8.5l-6.5-3.8c-2.9-1.7-6.8-0.7-8.5,2.3l-4.6,7.9c-0.8,1.3-2.2,2.1-3.8,1.7
	c-2-0.3-4.1-0.4-6-0.2c-1.4,0.1-2.8-0.6-3.5-1.8l-4.7-8.1c-1.7-3-5.5-4-8.5-2.3l-6.5,3.8c-3.3,1.7-4.3,5.5-2.6,8.4l3.7,6.4
	c0.8,1.4,0.6,3.1-0.4,4.3c-2.8,3.1-5,6.8-6.3,10.8c-0.5,1.5-1.9,2.6-3.6,2.6l-7.3,0c-3.4,0-6.2,2.8-6.2,6.2l0,7.5
	c0,3.4,2.8,6.2,6.2,6.2l8.8,0c1.5,0,2.8,0.8,3.4,2.2c0.9,2,2.1,3.9,3.5,5.7c0.9,1.2,1,2.8,0.4,4.1l-4.3,7.4
	c-1.7,2.9-0.7,6.8,2.3,8.5l6.5,3.8c2.9,1.7,6.8,0.7,8.5-2.3l4.3-7.4c0.8-1.3,2.2-2.1,3.7-1.9c2.4,0.3,4.8,0.3,7.1,0.2
	c1.4-0.1,2.8,0.6,3.6,1.8l4.8,8.2c1.7,3,6.1,4.9,9,3.2l6.5-3.8c3-1.7,3.5-6.4,1.7-9.4l-4.1-7.1c-0.8-1.4-0.6-3.1,0.4-4.4
	c1.2-1.4,2.2-2.9,3.2-4.5c0.8-1.3,1.4-2.6,1.9-3.9c0.6-1.4,1.9-2.3,3.5-2.4l10.2,0C94.1,54.2,96.9,51.4,96.9,48.1z M39.6,57.5
	c-7.3-4.2-9.7-13.4-5.5-20.6c4.2-7.3,13.4-9.7,20.6-5.5c7.3,4.2,9.7,13.4,5.5,20.6l0,0C56,59.2,46.9,61.7,39.6,57.5L39.6,57.5z"/>
</svg>
