<?xml version="1.0" encoding="utf-8"?>
<!-- Generator: Adobe Illustrator 25.4.1, SVG Export Plug-In . SVG Version: 6.00 Build 0)  -->
<svg version="1.1" id="Layer_1" xmlns="http://www.w3.org/2000/svg" xmlns:xlink="http://www.w3.org/1999/xlink" x="0px" y="0px"
	 viewBox="0 0 96.6 89.5" style="enable-background:new 0 0 96.6 89.5;" xml:space="preserve">
<style type="text/css">
	.st0{fill:#FFFFFF;}
</style>
<path class="st0" d="M69.7,88.7l6.5-3.7c3-1.7,4-5.5,2.3-8.5l-5.2-8.9c-0.8-1.3-0.6-3,0.3-4.2c1.7-2.2,3.1-4.6,4.2-7.2
	c0.6-1.4,1.9-2.3,3.5-2.3h9.1c3.4,0,6.2-2.8,6.2-6.2v-7.5c0-3.4-2.8-6.2-6.2-6.2h-9.1c-1.5,0-2.9-0.9-3.4-2.4
	c-0.8-1.9-1.7-3.7-2.8-5.3c-0.8-1.2-0.9-2.7-0.2-3.9l4.2-7.2c1.7-3,0.7-6.8-2.3-8.5l-6.5-3.7C67.2,1,63.4,2,61.7,5l-3.2,5.5
	c-0.8,1.4-2.4,2.1-3.9,1.8c-4.1-0.9-8.4-0.9-12.5-0.1c-1.6,0.3-3.2-0.4-4-1.8l-4.2-7.2c-1.7-3-5.5-4-8.5-2.3l-6.5,3.8
	c-3,1.7-4,5.5-2.3,8.5l4.9,8.5c0.7,1.3,0.7,2.8-0.2,4c-1.3,1.8-2.3,3.8-3.2,5.9c-0.6,1.4-1.9,2.3-3.4,2.4H6.2
	c-3.4,0-6.2,2.8-6.2,6.2v7.5c0,3.4,2.8,6.2,6.2,6.2h8.6c1.5,0,2.9,0.9,3.5,2.3c0.9,2.2,2.1,4.3,3.4,6.2c0.8,1.2,0.9,2.7,0.2,4
	l-4.7,8.2c-1.7,3-0.7,6.8,2.2,8.5l6.5,3.7c3,1.7,6.8,0.7,8.5-2.3l4.1-7.1c0.8-1.4,2.4-2.1,4-1.8c1.8,0.3,3.6,0.5,5.5,0.5
	c1.5,0,2.9-0.1,4.3-0.3c1.5-0.2,3,0.5,3.8,1.8l5.1,8.8C63,89.4,66.8,90.4,69.7,88.7z M32.9,43.8c0-8.4,6.8-15.1,15.1-15.1
	c8.4,0,15.1,6.8,15.1,15.1c0,8.4-6.8,15.1-15.1,15.1c0,0,0,0,0,0C39.6,58.9,32.9,52.2,32.9,43.8C32.9,43.8,32.9,43.8,32.9,43.8z"/>
</svg>
