<?xml version="1.0" encoding="utf-8"?>
<!-- Generator: Adobe Illustrator 25.4.1, SVG Export Plug-In . SVG Version: 6.00 Build 0)  -->
<svg version="1.1" id="Layer_1" xmlns="http://www.w3.org/2000/svg" xmlns:xlink="http://www.w3.org/1999/xlink" x="0px" y="0px"
	 viewBox="0 0 89.8 89.8" style="enable-background:new 0 0 89.8 89.8;" xml:space="preserve">
<style type="text/css">
	.st0{fill:#FFFFFF;}
</style>
<path class="st0" d="M60.6,44.9l26-26c4.3-4.3,4.3-11.3,0-15.7s-11.3-4.3-15.7,0l-26,26l-26-26c-4.3-4.3-11.4-4.3-15.7,0
	s-4.3,11.4,0,15.7l26,26l-26,26c-4.3,4.3-4.3,11.4,0,15.7c4.3,4.3,11.4,4.3,15.7,0l0,0l26-26l26,26c4.3,4.3,11.4,4.3,15.7,0
	s4.3-11.4,0-15.7L60.6,44.9z"/>
</svg>
