<svg width="600" height="600" viewBox="0 0 600 600" fill="none" xmlns="http://www.w3.org/2000/svg">
<rect width="600" height="600" rx="300" fill="#151719"/>
<g clip-path="url(#clip0_14_100)">
<path d="M100.137 429.373C98.9722 416.248 98.6099 403.053 97.8546 389.892C97.6081 385.597 97.2969 381.304 96.9094 377.019C96.1443 368.559 91.5267 362.975 83.8548 359.661C74.6988 355.706 74.8665 355.68 75.0503 345.533C75.1178 341.803 76.3844 339.822 79.835 338.209C84.0203 336.252 88.1041 333.723 91.5854 330.697C97.2879 325.741 97.4146 318.447 97.6414 311.667C98.986 271.467 100.134 231.259 101.241 191.052C101.615 177.468 101.795 163.876 101.81 150.288C101.815 146.228 103.559 144.644 107.304 144.638C109.041 144.636 110.79 144.595 112.513 144.774C115.8 145.114 117.527 146.746 117.377 150.347C117.175 155.158 117.327 159.983 117.327 165.798C122.434 161.096 126.382 156.93 130.854 153.437C150.053 138.441 176.809 137.379 197.9 149.439C218.942 161.471 229.718 179.341 230.704 203.181C232.133 237.751 210.176 265.59 178.517 270.567C163.392 272.944 147.332 270.479 134.725 262.664C124.982 256.624 121.738 253.671 117.546 249.798C117.059 253.82 117.522 266.085 117.396 274.227C117.206 286.506 116.919 298.819 116.482 311.056C115.965 325.512 110.894 337.462 98.0574 345.283C96.9621 345.951 96.095 346.992 94.7618 348.181C97.747 350.235 100.451 351.91 102.951 353.848C112.038 360.892 115.386 370.95 116.275 381.73C117.389 395.26 117.491 408.871 118.263 422.434C118.472 426.11 118.804 430.079 120.342 433.313C123.087 439.084 128.949 440.337 134.711 440.469C142.295 440.644 141.43 445.202 141.398 448.749C141.355 453.521 141.624 457.636 131.279 457.303C112.173 456.688 101.39 443.49 100.137 429.373ZM202.501 173.987C201.072 172.566 199.671 171.114 198.21 169.726C179.302 151.767 148.65 153.095 130.72 170.616C116.885 184.136 112.881 209.853 120.79 228.682C130.139 250.938 160.194 264.804 185.546 252.857C215.308 238.833 224.988 200.303 202.501 173.987Z" fill="white"/>
<path d="M426.931 157.353C415.511 159.357 406.653 164.923 399.582 173.617C396.285 177.672 392.633 181.439 388.802 185.714C387.091 179.683 385.405 175.69 382.938 170.73C388.359 163.4 399.667 149.519 411.775 145.352C427.448 139.959 445.39 140.067 461.416 148.278C466.375 150.819 470.747 154.531 475.306 157.82C477.457 159.372 479.415 161.191 482.447 163.708C482.729 159.358 482.996 156.008 483.155 152.652C483.507 145.206 485.39 143.572 492.917 144.491C494.902 144.733 496.85 145.287 498.982 145.732C499.043 147.07 499.133 148.244 499.146 149.418C499.718 200.671 500.265 251.925 500.88 303.178C500.937 307.876 501.307 312.581 501.748 317.262C502.609 326.393 507.488 332.607 515.824 336.293C524.392 340.081 524.034 340.128 523.976 349.391C523.944 354.519 522.2 357.02 517.26 358.428C507.675 361.161 503.146 368.594 502.316 377.893C501.084 391.681 500.922 405.563 499.812 419.365C499.236 426.531 498.456 433.891 496.244 440.665C493.094 450.312 486.063 456.53 475.372 456.739C452.388 457.188 429.134 456.851 406.146 456.98C401.205 457.008 400.948 454.713 401.083 449.095C401.183 444.919 400.933 440.751 410.307 440.615C428.194 440.354 446.345 439.896 464.225 440.042C477.806 440.153 481.094 432.203 481.405 422.714C481.849 409.136 482.285 395.552 483.057 381.99C483.82 368.566 489.41 357.72 501.188 350.539C502.099 349.984 502.963 349.347 503.826 348.718C504.034 348.567 504.152 348.294 504.564 347.732C503.324 346.811 502.135 345.808 500.835 344.979C489.424 337.707 483.697 327.171 482.963 313.807C482.137 298.768 481.471 283.72 480.529 268.689C480.376 266.254 480.39 258.4 479.944 251.257C473.068 255.862 465.906 260.359 458.885 263.082C433.851 272.718 408.208 266.558 390.456 251.471C387.237 248.735 383.84 245.342 382.013 241.928C383.974 237.417 385.838 234.392 388.055 229.566C390.028 232.346 393.369 236.446 396.267 239.24C408.883 251.401 432.216 257.228 450.78 251.6C484.558 241.36 492.561 202.215 475.255 177.447C463.707 160.919 447.511 153.899 426.931 157.353Z" fill="white"/>
<path d="M354.422 150.8C375.97 165.699 386.125 185.782 384.223 211.855C382.76 231.911 373.941 247.93 357.56 259.26C319.938 285.281 266.466 267.499 257.071 219.2C249.494 180.241 274.711 147.528 309.313 141.953C325.143 139.402 340.363 141.848 354.422 150.8ZM271.419 207.485C271.723 210.556 271.817 213.664 272.363 216.69C279.144 254.259 319.305 265.942 347.03 248.829C368.148 235.794 373.629 207.02 365.338 186.841C354.313 160.005 323.34 148.486 298.117 161.438C279.864 170.811 271.577 186.468 271.419 207.485Z" fill="white"/>
<path d="M312.75 330.191C315.664 344.437 315.543 358.977 309.108 372.444C301.1 389.203 286.885 396.525 268.722 396.754C246.952 397.028 229.639 385.381 224.64 364.537C218.666 339.623 222.637 317.298 243.099 303.191C247.678 300.035 253.506 297.811 259.01 297.098C266.106 296.18 282.875 296.581 292.522 302.493C302.269 308.467 309.244 313.056 312.75 330.191ZM290.318 374.951C292.319 371.947 294.822 369.16 296.231 365.9C300.999 354.869 301.141 343.25 298.05 331.933C294.64 319.449 286.47 311.199 273.083 309.332C259.795 307.48 248.454 312.95 241.955 324.736C235.685 336.104 234.71 348.22 238.424 360.637C245.506 384.317 272.363 391.964 290.318 374.951Z" fill="white"/>
<path d="M210.509 378.519C206.468 390.103 197.334 394.136 186.592 395.849C176.859 397.402 167.287 396.34 157.94 393.469C152.623 391.836 149.405 384.067 152.037 379.212C152.524 378.312 154.972 377.761 156.214 378.112C160.975 379.461 165.566 381.399 170.309 382.825C176.251 384.61 182.229 384.495 188.113 382.339C198.197 378.646 200.29 368.223 192.221 361.034C189.748 358.83 186.789 357.131 183.925 355.414C177.029 351.279 169.941 347.454 163.145 343.163C154.304 337.582 150.746 329.308 152.155 319.015C153.605 308.423 160.253 302.149 169.85 298.529C180.892 294.364 192.066 295.42 203.159 298.106C208.166 299.318 210.352 307.901 206.789 311.921C206.177 312.612 204.094 312.513 202.92 312.11C194.789 309.314 186.573 308.011 177.989 309.586C169.845 311.08 164.275 319.578 167.64 326.202C168.843 328.569 171.094 330.712 173.371 332.168C181.052 337.08 188.918 341.708 196.79 346.313C207.623 352.651 214.236 361.012 210.509 378.519Z" fill="white"/>
<path d="M366.566 383.597C375.983 385.005 384.494 382.289 392.924 379.639C396.261 378.59 397.279 379.567 397.887 382.499C399.089 388.286 397.828 391.501 392.824 393.115C379.888 397.288 366.712 398.474 353.647 394.02C337.626 388.558 328.999 376.639 326.062 360.348C322.525 340.725 325.665 322.719 340.694 308.5C351.583 298.197 365.183 295.071 379.868 296.384C383.731 296.73 387.573 297.483 391.376 298.284C396.011 299.261 399.844 307.656 397.354 311.599C396.858 312.384 394.806 312.642 393.589 312.439C387.404 311.408 381.303 309.553 375.088 309.072C353.46 307.399 336.287 328.788 338.755 349.838C340.191 362.085 343.979 372.987 355.362 379.473C358.673 381.359 362.592 382.178 366.566 383.597Z" fill="white"/>
<path d="M231.562 149.45C231.855 152.977 232.107 156.151 232.446 160.418C236.732 156.374 240.219 152.922 243.879 149.666C251.269 143.091 259.736 139.8 269.746 141.757C271.169 142.035 272.572 142.561 273.899 143.16C276.46 144.317 276.897 145.982 275.652 148.671C272.951 154.505 268.33 156.568 262.305 156.207C252.9 155.644 246.586 160.454 241.744 167.866C240.574 169.658 239.528 171.532 238.453 173.385C237.196 175.552 235.031 179.237 233.756 181.477C230.196 170.202 223.412 161.261 216.821 153.612C213.191 149.399 217.173 143.709 222.788 143.574C223.989 143.545 225.196 143.768 226.397 143.739C230.099 143.649 231.775 145.434 231.562 149.45Z" fill="white"/>
<path d="M418.675 381.946C420.36 376.249 425.701 373.626 430.53 376.196C431.484 376.704 432.283 379.038 431.954 380.186C427.871 394.448 423.62 408.664 419.281 422.851C418.104 426.702 414.673 425.523 412.123 425.151C408.671 424.648 410.247 421.662 410.588 419.963C413.114 407.367 415.887 394.821 418.675 381.946Z" fill="white"/>
<path d="M384.56 339.552C388.285 339.9 387.054 342.454 386.844 344.169C386.507 346.921 385.693 349.615 384.906 353.105C389.316 352.072 390.952 349.397 391.637 346.076C392.538 341.702 390.51 337.197 386.697 335.615C381.469 333.446 376.148 333.469 371.5 337.093C366.967 340.628 365.626 345.503 366.652 351.098C367.295 354.602 372.634 360.505 379.46 360.046C380.869 359.951 382.276 359.823 384.678 359.631C383.481 360.888 383.093 361.653 382.509 361.857C373.459 365.022 363.741 358.278 363.443 348.679C363.048 335.948 376.694 327.252 388.01 333.086C392.316 335.306 394.537 339.041 394.554 343.85C394.571 348.548 392.842 352.563 388.529 354.891C385.828 356.348 382.918 357.26 380.753 353.518C377.845 356.019 374.887 357.376 371.778 354.356C369.161 351.813 369.161 347.065 371.658 342.733C373.662 339.255 376.961 337.73 380.42 338.659C381.678 338.996 382.948 339.284 384.56 339.552ZM378.649 341.188C374.958 341.58 371.947 347.231 373.007 350.789C373.498 352.438 375.962 353.503 377.63 353.082C380.557 352.345 383.07 348.707 382.866 345.695C382.727 343.642 382.101 340.82 378.649 341.188Z" fill="white"/>
<path d="M425.066 312.97C418.425 312.472 416.243 307.763 416.749 301.027C417.136 295.874 420.219 292.28 424.622 291.85C430.12 291.312 434.899 295.265 435.452 300.807C436.157 307.88 432.478 313.525 425.066 312.97Z" fill="white"/>
<path d="M417.501 335.33C417.505 334.167 418.974 332.793 420.211 332.791C421.391 332.789 422.789 334.123 422.801 335.202C422.859 340.706 422.826 346.07 422.773 351.577C422.736 355.384 416.779 359.765 412.378 359.719C408.017 359.674 402.324 355.638 402.247 351.44C402.135 345.295 402.289 341.114 402.131 334.951C402.111 334.154 403.307 332.572 404.402 332.575C405.611 332.579 406.858 333.969 406.893 335.211C407.02 339.692 407.037 345.162 407.124 350.483C407.165 352.96 409.809 355.185 412.107 355.254C414.449 355.325 417.442 352.965 417.466 350.708C417.523 345.558 417.49 339.924 417.501 335.33Z" fill="white"/>
<path d="M231.368 240.827C231.719 250.705 233.214 264.573 231.159 266.98C229.156 269.327 221.134 268.019 216.979 267.782C214.293 267.629 215.044 265.417 214.397 262.016C221.541 255.809 226.636 250.254 231.368 240.827Z" fill="white"/>
<path d="M463.342 336.098C460.7 336.021 458.768 336.792 458.21 338.613C457.76 340.08 459.112 341.681 460.499 342.607C462.806 344.146 466.192 345.434 468.193 347.187C471.448 350.037 471.548 353.105 468.828 356.321C466.03 359.629 457.88 360.982 454.271 358.635C453.619 358.211 451.837 356.863 452.332 355.844C453.343 353.764 457.271 355.451 459.258 355.435C460.984 355.42 463.523 354.433 463.87 352.675C464.199 351.005 462.195 349.514 460.811 348.586C459.207 347.51 457.756 346.937 456.316 345.971C453.539 344.109 452.272 341.641 452.838 338.11C453.429 334.416 455.717 332.893 458.987 332.218C462.556 331.482 470.021 330.851 470.029 334.617C470.034 336.9 465.983 336.175 463.342 336.098Z" fill="white"/>
<path d="M435.527 342.701C435.497 335.755 434.186 336.581 430.36 335.812C429.489 335.636 427.609 335.438 427.709 334.449C428.069 330.874 434.494 331.54 438.088 331.534C441.662 331.528 447.745 330.892 448.421 334.402C448.582 335.237 447.221 335.756 446.393 335.949C439.863 337.469 441.369 335.729 440.997 343.041C440.819 346.523 440.629 352.072 440.16 355.522C439.998 356.722 439.497 359 438.157 359.009C436.783 359.019 436.489 356.785 436.052 355.466C435.862 351.345 435.543 346.522 435.527 342.701Z" fill="white"/>
</g>
<defs>
<clipPath id="clip0_14_100">
<rect width="449" height="317.942" fill="white" transform="translate(75 141)"/>
</clipPath>
</defs>
</svg>
